<svg width="400" height="300" viewBox="0 0 400 300" xmlns="http://www.w3.org/2000/svg">
  <!-- Microscope -->
  <g transform="translate(50, 50)">
    <rect x="40" y="60" width="80" height="40" rx="5" fill="#374151" stroke="#1f2937"/>
    <rect x="50" y="40" width="60" height="20" rx="3" fill="#6b7280"/>
    <line x1="80" y1="40" x2="80" y2="20" stroke="#374151" stroke-width="3"/>
    <circle cx="80" cy="20" r="8" fill="#2563eb"/>
    <rect x="70" y="100" width="20" height="80" fill="#4b5563"/>
    <rect x="60" y="180" width="40" height="10" fill="#374151"/>
    <text x="80" y="200" font-family="Arial" font-size="12" text-anchor="middle" fill="#1f2937">
      Microscopio
    </text>
    <text x="80" y="215" font-family="Arial" font-size="10" text-anchor="middle" fill="#6b7280">
      Precisión 20x
    </text>
  </g>
  
  <!-- Ultrasonic tools -->
  <g transform="translate(200, 80)">
    <rect x="20" y="20" width="60" height="15" rx="7" fill="#60a5fa"/>
    <rect x="15" y="30" width="70" height="8" rx="4" fill="#2563eb"/>
    <line x1="50" y1="38" x2="50" y2="80" stroke="#374151" stroke-width="2"/>
    <ellipse cx="50" cy="85" rx="3" ry="8" fill="#ef4444"/>
    <text x="50" y="110" font-family="Arial" font-size="12" text-anchor="middle" fill="#1f2937">
      Ultrasonido
    </text>
    <text x="50" y="125" font-family="Arial" font-size="10" text-anchor="middle" fill="#6b7280">
      Limpieza precisa
    </text>
    
    <!-- Vibration lines -->
    <g opacity="0.6">
      <circle cx="50" cy="85" r="12" fill="none" stroke="#ef4444" stroke-width="1"/>
      <circle cx="50" cy="85" r="18" fill="none" stroke="#ef4444" stroke-width="1"/>
      <circle cx="50" cy="85" r="24" fill="none" stroke="#ef4444" stroke-width="1"/>
    </g>
  </g>
  
  <!-- Digital X-ray -->
  <g transform="translate(300, 60)">
    <rect x="10" y="30" width="50" height="40" rx="3" fill="#1f2937"/>
    <rect x="15" y="35" width="40" height="30" fill="#60a5fa"/>
    <circle cx="35" cy="50" r="8" fill="#ffffff" stroke="#2563eb" stroke-width="2"/>
    <circle cx="35" cy="50" r="3" fill="#ef4444"/>
    <text x="35" y="90" font-family="Arial" font-size="12" text-anchor="middle" fill="#1f2937">
      Rayos X
    </text>
    <text x="35" y="105" font-family="Arial" font-size="10" text-anchor="middle" fill="#6b7280">
      Imagen digital
    </text>
  </g>
  
  <!-- Title -->
  <text x="200" y="30" font-family="Arial" font-size="18" font-weight="bold" fill="#1f2937" text-anchor="middle">
    Tecnología Avanzada
  </text>
  
  <!-- Specialized instruments -->
  <g transform="translate(80, 180)">
    <rect x="0" y="20" width="240" height="60" rx="5" fill="#f8fafc" stroke="#e5e7eb"/>
    <text x="120" y="35" font-family="Arial" font-size="12" font-weight="bold" fill="#1f2937" text-anchor="middle">
      Instrumentación Especializada
    </text>
    
    <!-- File instruments -->
    <line x1="30" y1="50" x2="70" y2="50" stroke="#2563eb" stroke-width="3" stroke-linecap="round"/>
    <line x1="30" y1="60" x2="65" y2="60" stroke="#2563eb" stroke-width="2" stroke-linecap="round"/>
    <line x1="30" y1="70" x2="60" y2="70" stroke="#2563eb" stroke-width="1" stroke-linecap="round"/>
    
    <text x="100" y="55" font-family="Arial" font-size="10" fill="#6b7280">• Limas rotatorias NiTi</text>
    <text x="100" y="67" font-family="Arial" font-size="10" fill="#6b7280">• Localizador apical</text>
    
    <!-- Gutta percha points -->
    <line x1="170" y1="50" x2="190" y2="50" stroke="#f59e0b" stroke-width="4" stroke-linecap="round"/>
    <line x1="170" y1="60" x2="188" y2="60" stroke="#f59e0b" stroke-width="3" stroke-linecap="round"/>
    <line x1="170" y1="70" x2="185" y2="70" stroke="#f59e0b" stroke-width="2" stroke-linecap="round"/>
    
    <text x="200" y="60" font-family="Arial" font-size="10" fill="#6b7280">Material biocompatible</text>
  </g>
  
  <!-- Success rate -->
  <rect x="50" y="260" width="300" height="30" fill="#ecfdf5" stroke="#16a34a" stroke-width="1" rx="3"/>
  <text x="200" y="280" font-family="Arial" font-size="14" font-weight="bold" fill="#16a34a" text-anchor="middle">
    🏆 Tasa de éxito del 95%+ con tecnología microscópica
  </text>
</svg>