<svg width="1200" height="600" viewBox="0 0 1200 600" xmlns="http://www.w3.org/2000/svg">
  <defs>
    <linearGradient id="heroGradient" x1="0%" y1="0%" x2="100%" y2="100%">
      <stop offset="0%" style="stop-color:#667eea;stop-opacity:0.8" />
      <stop offset="100%" style="stop-color:#764ba2;stop-opacity:0.9" />
    </linearGradient>
    <pattern id="dots" x="0" y="0" width="40" height="40" patternUnits="userSpaceOnUse">
      <circle cx="20" cy="20" r="2" fill="rgba(255,255,255,0.1)" />
    </pattern>
  </defs>
  
  <!-- Background -->
  <rect width="1200" height="600" fill="url(#heroGradient)" />
  <rect width="1200" height="600" fill="url(#dots)" />
  
  <!-- Medical equipment silhouettes -->
  <g transform="translate(800, 100)" opacity="0.1" fill="white">
    <!-- Dental chair -->
    <rect x="0" y="50" width="120" height="80" rx="10" />
    <rect x="30" y="0" width="60" height="60" rx="30" />
    <rect x="140" y="30" width="20" height="100" />
    <circle cx="150" cy="20" r="15" />
  </g>
  
  <!-- Tooth illustration -->
  <g transform="translate(900, 200)" opacity="0.15" fill="white">
    <path d="M50 0C70 0 80 20 80 40C80 60 70 80 60 90C50 100 40 100 30 90C20 80 10 60 10 40C10 20 30 0 50 0Z" />
    <path d="M35 90L35 120M50 90L50 130M65 90L65 125" stroke="white" stroke-width="3" fill="none" />
  </g>
</svg>