<svg width="400" height="300" viewBox="0 0 400 300" xmlns="http://www.w3.org/2000/svg">
  <defs>
    <linearGradient id="toothGradient" x1="0%" y1="0%" x2="0%" y2="100%">
      <stop offset="0%" style="stop-color:#f8fafc" />
      <stop offset="100%" style="stop-color:#e2e8f0" />
    </linearGradient>
  </defs>
  
  <!-- Tooth outline -->
  <path d="M200 50C240 50 260 80 260 120C260 160 240 180 220 200C210 210 190 210 180 200C160 180 140 160 140 120C140 80 160 50 200 50Z" 
        fill="url(#toothGradient)" stroke="#64748b" stroke-width="2" />
  
  <!-- Root canals -->
  <path d="M185 200L185 250M200 200L200 260M215 200L215 255" 
        stroke="#ef4444" stroke-width="4" fill="none" stroke-linecap="round" />
  
  <!-- Pulp chamber -->
  <ellipse cx="200" cy="130" rx="25" ry="35" fill="#fef2f2" stroke="#ef4444" stroke-width="1" />
  
  <!-- Treatment instruments -->
  <g transform="translate(280, 80)" opacity="0.7">
    <rect x="0" y="0" width="3" height="60" fill="#6b7280" />
    <circle cx="1.5" cy="-5" r="4" fill="#3b82f6" />
    <text x="10" y="30" font-family="Arial" font-size="12" fill="#374151">Instrumento</text>
  </g>
  
  <!-- Labels -->
  <text x="200" y="280" text-anchor="middle" font-family="Arial" font-size="14" fill="#374151" font-weight="bold">
    Tratamiento de Conductos
  </text>
</svg>